<?xml version="1.0" encoding="utf-8"?>
<!-- Generator: Adobe Illustrator 16.0.0, SVG Export Plug-In . SVG Version: 6.00 Build 0)  -->
<!DOCTYPE svg PUBLIC "-//W3C//DTD SVG 1.1//EN" "http://www.w3.org/Graphics/SVG/1.1/DTD/svg11.dtd">
<svg version="1.1" id="Layer_1" xmlns="http://www.w3.org/2000/svg" xmlns:xlink="http://www.w3.org/1999/xlink" x="0px" y="0px"
	 width="999.1px" height="381.038px" viewBox="0 0 999.1 381.038" enable-background="new 0 0 999.1 381.038" xml:space="preserve">
<g>
	<g>
		<path fill="#FFFFFF" d="M497.51,159.508c0.2-0.795,0.994-1.194,1.988-1.395c8.348-1.586,15.902,1.791,19.879,8.748
			c4.17,8.149,1.986,22.063-2.588,36.377c-9.34,29.02-37.563,89.844-56.843,113.695c-3.776,4.569-8.549,8.545-14.513,8.545
			c-8.548,0-17.692-15.306-17.291-24.051c0.199-4.572,1.589-16.495,3.776-32.203c-7.354,15.708-15.903,30.611-25.841,42.934
			c-3.777,4.578-8.548,8.549-14.509,8.549c-7.158,0-14.911-11.13-16.899-19.878c-1.788-8.146,3.384-23.452,5.568-31.402
			c5.765-21.47,14.707-55.658,18.486-83.086c-18.09,8.148-35.185,19.675-40.751,32.996c-2.582,6.161-3.377,12.322-1.786,18.283
			c0.396,1.592,0.2,2.983-1.391,2.787c-11.729-0.2-19.48-8.349-21.069-18.087c-3.977-25.047,29.217-42.934,47.701-49.694
			c8.151-2.983,16.102-5.168,24.452-6.757c6.956-1.195,15.503,6.957,15.106,13.914c-1.792,24.051-10.736,61.816-18.089,88.648
			c-1.986,7.153-5.566,17.097-5.566,24.45c22.062-29.619,39.554-59.632,49.291-95.408c2.191-7.157,4.375-13.917,6.562-20.078
			c2.985-8.543,25.045-2.778,18.686,12.527c-9.74,23.253-19.681,83.877-19.681,107.132c18.488-28.823,50.29-100.977,46.314-134.166
			C498.504,161.496,497.113,160.504,497.51,159.508z"/>
		<path fill="#FFFFFF" d="M559.132,157.72c5.366,0,12.92,5.962,14.111,11.133c0.396,1.589,0,2.978-1.191,4.37
			c-1.194,1.592-3.379,4.372-5.962,8.349c-12.524,18.286-24.054,37.169-33.99,56.249c8.149-11.529,38.758-39.953,46.71-39.953
			c4.174,0,5.367,2.387,8.351,6.363c3.376,4.572,3.972,10.138,1.985,13.121c-5.964,8.939-22.462,32.2-30.214,47.304
			c-1.389,2.983-9.736,19.679,0.996,12.521c6.957-4.769,17.288-16.892,20.867-25.044c0.996-2.185,3.78-2.185,3.58,0.993
			c-0.796,16.498-24.05,50.886-40.151,50.886c-4.974,0-11.331-5.961-12.92-10.736c-1.79-5.365-0.396-13.115,0.991-18.283
			c4.376-16.698,21.073-40.35,28.427-49.894c-19.679,16.895-36.175,39.756-48.696,68.576c0,0-0.996,3.38-2.786,3.38
			c-2.579,0-8.546-3.973-11.526-9.541c-3.379-6.36-3.379-13.714,2.186-25.044c17.092-33.595,34.781-65.393,52.075-98.788
			C553.368,161.097,555.75,157.72,559.132,157.72z"/>
		<path fill="#FFFFFF" d="M592.326,273.6c-1.387,5.962,0.198,6.755,4.771,3.577c6.958-4.769,17.493-16.697,20.871-24.847
			c0.992-2.183,3.976-2.183,3.774,0.995c-0.992,16.299-24.249,50.687-40.148,50.687c-5.17,0-10.734-5.961-12.323-10.736
			c-1.394-5.165-0.201-13.115,0.992-18.283c5.962-22.662,25.044-54.862,36.774-73.349c1.391-1.786,2.581-3.776,5.762-3.776
			c5.368,0,13.119,3.979,14.115,9.147c0.394,1.592,0,2.978-0.996,4.173c-0.991,1.192-2.387,3.181-3.975,5.168
			C612.005,229.277,596.502,257.302,592.326,273.6z M640.431,184.752c-2.59,7.753-9.74,14.311-15.705,14.311
			c-6.36,0-8.943-6.558-6.36-14.311c2.982-7.753,10.135-14.113,16.102-14.113C640.431,170.639,643.212,176.999,640.431,184.752z"/>
		<path fill="#FFFFFF" d="M648.577,220.529c-5.563,14.313-3.776,38.761-3.976,58.835c-0.198,20.871-5.563,46.114-32.993,46.114
			c-11.131,0-18.287-7.952-17.69-22.266c0.198-4.369,3.975-6.754,4.969-2.978c0.794,3.377,2.585,4.969,5.168,4.969
			c18.883,0,21.467-27.431,22.265-51.482c-3.782,8.748-12.523,22.263-20.674,28.424c-0.201,0.2-0.597,0.399-0.996,0
			c-3.379-3.377-1.788-8.149,0.996-11.329c11.131-12.919,17.492-31.604,22.461-47.11c4.173-13.514,9.734-26.036,26.234-26.036
			c7.158,0,12.523,6.164,13.717,11.926c0.595-0.793,0.996-1.589,1.391-2.185c0.596-1.396,1.592-2.981,3.38-2.981
			c2.582,0,6.358,2.778,6.957,5.366c0,0.796,0,1.392-0.599,1.987c-4.968,6.361-10.133,14.707-13.117,22.061
			c-0.397,0.799-0.998,3.181-2.188,2.983c-1.192-0.196-3.775-2.581-4.77-5.368c-0.593-2.182-0.593-4.372,0.397-6.754
			C665.071,210.192,652.952,208.803,648.577,220.529z"/>
		<path fill="#FFFFFF" d="M695.289,196.278c-8.347,1.195-15.309,1.991-17.492-0.2c-3.38-3.377-1.192-9.737,0.798-10.536
			c0.592-0.194,1.386,0.205,2.188,0.799c1.785,1.591,10.133,0.992,20.07,0c4.374-7.557,8.549-14.907,12.525-22.659
			c1.389-2.781,3.576-5.962,6.955-5.962c5.368,0,13.316,5.762,14.51,11.33c0.198,1.392,0,2.78-1.193,4.173
			c-2.782,3.576-5.764,7.354-8.349,11.133c11.53-0.2,20.274,1.187,19.085,7.354c-0.199,1.586-0.994,3.177-2.188,3.776
			c-0.798,0.394-1.591-0.2-2.188-0.996c-3.776-3.18-11.329-3.38-19.677-2.581c-15.504,23.852-33.791,55.06-40.548,77.716
			c-1.391,4.569-2.983,12.128,3.974,7.359c6.96-4.772,17.691-16.504,21.07-25.05c0.995-1.985,3.776-1.985,3.577,1.192
			c-0.792,16.498-24.05,50.886-40.151,50.886c-5.166,0-10.732-6.161-12.121-10.736c-3.979-13.911,8.147-38.957,14.706-51.676
			C678.595,225.897,686.942,210.985,695.289,196.278z"/>
		<path fill="#FFFFFF" d="M739.813,184.355c4.969-8.945,8.348-14.909,11.328-20.674c1.389-2.585,3.577-5.962,6.954-5.962
			c5.567,0,13.317,5.962,14.513,11.133c0.199,1.39,0,2.781-1.195,4.167c-1.389,1.598-3.376,4.376-6.159,8.552
			c-16.896,24.245-39.751,62.017-47.703,88.053c-1.39,4.569-2.982,12.328,3.971,7.553c6.962-4.769,17.692-16.892,21.073-25.044
			c0.995-2.185,3.776-2.185,3.578,0.993c-0.795,16.498-24.05,50.886-40.151,50.886c-5.169,0-10.732-5.961-12.124-10.736
			c-3.978-13.911,8.15-38.957,14.708-51.676C718.345,221.921,728.877,203.238,739.813,184.355z"/>
		<path fill="#FFFFFF" d="M736.632,291.091c-14.509-29.616,29.619-93.421,60.029-93.421c4.371,0,8.943,3.377,11.728,8.146
			c2.385,4.176,3.975,9.943,2.979,14.51c-5.166,20.677-31.007,48.305-46.51,53.867c-4.57,1.791-9.54,0.594-10.137-2.584
			c-1.195,9.344,1.19,16.102,11.924,14.113c15.702-2.584,34.188-19.481,39.95-33.59c0.799-2.185,3.779-2.185,3.58,0.993
			c-1.39,25.243-29.814,50.886-55.258,50.886C749.352,304.012,739.217,296.06,736.632,291.091z M762.473,248.157
			c-3.975,7.159-2.385,11.726,5.564,6.363c10.932-7.553,27.826-28.823,29.616-35.58c0.598-3.181-1.391-4.772-7.159-0.996
			C780.164,224.705,769.229,236.631,762.473,248.157z"/>
	</g>
	<g>
		<path fill="#00FF66" d="M524.123,110.239c1.773,0,3.311,0.313,4.609,0.953c1.377,0.661,2.479,1.346,3.301,2.064
			c1.005,0.851,1.894,1.843,2.665,2.984l-2.192,1.392c-0.582-0.93-1.295-1.726-2.143-2.391c-0.745-0.636-1.621-1.192-2.625-1.666
			c-0.982-0.479-2.162-0.719-3.539-0.719c-1.35,0-2.703,0.309-4.057,0.919c-1.298,0.582-2.449,1.403-3.455,2.465
			c-0.981,1.032-1.774,2.253-2.385,3.656c-0.585,1.35-0.876,2.847-0.876,4.492c0,1.563,0.304,3.061,0.913,4.493
			c0.608,1.403,1.406,2.621,2.386,3.653c1.007,1.059,2.159,1.886,3.458,2.468c1.353,0.61,2.701,0.912,4.055,0.912
			c1.483,0,2.783-0.262,3.898-0.793c1.06-0.502,1.959-1.086,2.703-1.751c0.82-0.69,1.537-1.509,2.146-2.465v-3.773h-6.957v-2.587
			h9.54v7.159c-0.74,1.241-1.657,2.368-2.742,3.377c-0.607,0.611-1.18,1.087-1.706,1.43c-0.585,0.373-1.196,0.69-1.831,0.955
			c-0.665,0.269-1.418,0.502-2.268,0.719c-0.766,0.183-1.682,0.274-2.743,0.274c-1.828,0-3.538-0.371-5.128-1.112
			c-1.617-0.742-3.047-1.763-4.296-3.063c-1.217-1.272-2.212-2.768-2.978-4.49c-0.74-1.666-1.114-3.5-1.114-5.484
			c0-1.988,0.374-3.819,1.114-5.485c0.766-1.729,1.761-3.224,2.978-4.493c1.249-1.303,2.679-2.321,4.296-3.061
			c1.59-0.744,3.3-1.115,5.128-1.115L524.123,110.239z"/>
		<path fill="#00FF66" d="M569.363,137.628l-6.164-10.736h-6.76v10.736h-2.583v-26.636h7.954c1.484,0,2.781,0.211,3.893,0.634
			c1.195,0.453,2.174,1.021,2.942,1.711c0.82,0.744,1.446,1.577,1.867,2.505c0.452,0.98,0.679,2.002,0.679,3.063
			c0,1.454-0.281,2.646-0.837,3.576c-0.557,0.928-1.164,1.641-1.829,2.146c-0.795,0.633-1.695,1.112-2.703,1.432v0.199l6.757,11.33
			L569.363,137.628z M561.811,124.311c0.977,0,1.904-0.146,2.781-0.437c0.793-0.269,1.482-0.65,2.064-1.152
			c0.584-0.505,1.01-1.064,1.275-1.672c0.291-0.662,0.434-1.363,0.434-2.11c0-0.739-0.143-1.443-0.434-2.105
			c-0.266-0.61-0.691-1.164-1.275-1.666c-0.582-0.508-1.271-0.89-2.064-1.155c-0.877-0.293-1.805-0.437-2.781-0.437h-5.371v10.734
			H561.811z"/>
		<path fill="#00FF66" d="M603.988,110.952v2.585h-11.728v9.142h8.544v2.581h-8.544v9.744h12.125v2.584h-14.714v-26.636H603.988z"/>
		<path fill="#00FF66" d="M636.583,110.952v2.585h-11.728v9.142h8.552v2.581h-8.552v9.744h12.127v2.584h-14.708v-26.636H636.583z"/>
		<path fill="#00FF66" d="M657.653,117.513h-0.197v20.075h-2.583v-27.432h0.59l15.11,20.871h0.198v-20.075h2.583v27.429h-0.593
			L657.653,117.513z"/>
	</g>
	<path fill="#FFFFFF" d="M154.43,133.344c0,0-45.16-39.209-51.574-41.018c-6.359-1.788-2.563,8.604,2.867,11.826
		c3.325,1.979,45.988,31.903,48.467,31.77c2.48-0.131,1.099-1.235,1.099-1.235"/>
	<path fill="#FFFFFF" d="M130.251,137.108c0,0-51.808-13.274-56.318-14.398c-5.73-1.429-3.778,8.819,0.911,9.612
		c3.348,0.563,53.385,8.203,55.522,7.217c2.143-0.981,0.915-1.74,0.915-1.74"/>
	<path fill="#00FF66" d="M845.884,208.165c0,0,53.635-46.567,61.252-48.715c7.553-2.124,3.043,10.218-3.405,14.045
		c-3.949,2.352-54.618,37.891-57.562,37.731c-2.946-0.155-1.305-1.467-1.305-1.467"/>
	<path fill="#00FF66" d="M874.6,212.636c0,0,61.529-15.766,66.887-17.101c6.806-1.696,4.487,10.475-1.082,11.416
		c-3.976,0.668-63.403,9.743-65.941,8.571c-2.545-1.165-1.087-2.066-1.087-2.066"/>
	<path fill="#00FF66" d="M284.875,185.305c-6.907-13.392-14.28-21.216,3.089-29.946c0-0.022-0.005-0.046-0.007-0.069
		c-11.155-8.143-32.675-2.581-56.21,17.594c-16.341,14.01-30.981,26.477-37.998,32.443c-0.181,0.459-0.371,0.946-0.581,1.482
		c0.13-0.5,0.136-0.829,0.06-1.04c-2.466,2.097-3.863,3.282-3.863,3.282l-4.886-5.756c0.002,0,95.331-80.506,115.171-97.262
		l13.435-12.098l8.554,19.441l-28.153,27.759l34.752-28.968l-10.014-22.859L274.7,78.253l-94.692,62.287l8.269,12.396l0.785-1.234
		l-5.92-10.442l33.54,11.433l-26.582,15.95c0,0-36.588-10.876-36.632-10.95c-3.476,2.419-6.767,5.012-9.813,7.807
		c-31.065,28.547-39.401,75.739-17.514,113.864c1.902,3.313,3.984,6.458,6.218,9.439c-6.383,0.43-18.344,0.625-30.144-2.451
		c2.249,4.945,9.088,10.908,17.642,15.332c24.849,0.354,54.095-3.97,77.275-17.865c0.099-0.06,0.189-0.114,0.288-0.177
		c20.357-12.3,33.238-30.39,38.289-53.768l8.564,1.849c-2.393,11.08-6.391,21.077-11.939,29.965
		c17.058-2.636,27.998-15.939,38.332-29.754c-14.016,33.078-36.377,39.027-45.876,40.02c-6.302,7.374-13.908,13.794-22.838,19.19
		c-0.103,0.063-0.206,0.125-0.31,0.185c-0.767,0.46-1.55,0.892-2.329,1.332c19.491,6.266,37.608-2.543,55.32-12.208
		c-33.075,30.261-61.101,22.062-69.01,18.784c-10.708,4.313-22.065,7.177-33.366,8.923c0.386,0.285,0.769,0.599,1.151,0.962
		c28.382,19.759,66.738,22.688,98.716,4.321c44.206-25.374,59.465-81.776,34.083-125.982
		C285.785,186.723,285.318,186.023,284.875,185.305z"/>
	<polyline fill="none" stroke="#00FF66" stroke-miterlimit="10" points="181.885,140.438 188.998,152.303 165.525,166.377 	"/>
	<path fill="#00FF66" d="M312.198,174.124"/>
</g>
</svg>
